<svg width="21" height="21" viewBox="0 0 21 21" fill="none" xmlns="http://www.w3.org/2000/svg">
<path d="M5.36098 7.45483H1.17725V20.923H5.36098V7.45483Z" fill="#060708"/>
<path d="M3.2957 5.65918C4.67263 5.65918 5.78477 4.55004 5.78477 3.17681C5.78477 1.80359 4.67263 0.694443 3.2957 0.694443C1.91877 0.694443 0.806641 1.80359 0.806641 3.17681C0.806641 4.55004 1.91877 5.65918 3.2957 5.65918Z" fill="#060708"/>
<path d="M12.0869 13.8457C12.0869 11.9443 12.9872 10.8352 14.6289 10.8352C16.1647 10.8352 16.9062 11.9443 16.9062 13.8457C16.9062 15.7999 16.9062 20.9231 16.9062 20.9231H21.0899C21.0899 20.9231 21.0899 16.0112 21.0899 12.3669C21.0899 8.77535 19.0245 7.03241 16.1647 7.03241C13.305 7.03241 12.0869 9.2507 12.0869 9.2507V7.45494H8.06201V20.9231H12.0869C12.0869 20.9231 12.0869 15.9056 12.0869 13.8457Z" fill="#060708"/>
</svg>
