<svg width="26" height="25" viewBox="0 0 26 25" fill="none" xmlns="http://www.w3.org/2000/svg">
<path d="M16.4251 25.0428C14.0949 25.0428 11.8177 25.0428 9.48748 25.0428C9.43452 25.0428 9.38156 25.0428 9.27564 25.0428C8.53421 25.0428 7.73983 24.99 6.9984 24.9372C6.36289 24.8843 5.72739 24.7259 5.14484 24.5146C3.34423 23.8808 2.12618 22.6661 1.38476 20.9231C1.01404 20.0252 0.855164 19.0217 0.802205 18.071C0.749246 17.4372 0.749251 16.8563 0.749251 16.2225C0.749251 16.064 0.749248 15.9056 0.696289 15.7471C0.696289 13.8457 0.696289 11.9443 0.696289 10.0429C0.696289 9.99013 0.696289 9.99013 0.696289 9.93731C0.696289 9.35633 0.749251 8.77535 0.749251 8.19437C0.749251 7.56057 0.802204 6.92678 0.908122 6.3458C1.067 5.60637 1.27884 4.91975 1.59659 4.23314C2.33802 2.8071 3.50312 1.8564 4.98597 1.27542C5.83331 0.958524 6.73361 0.800075 7.63392 0.747258C8.58718 0.694442 9.48747 0.694443 10.4407 0.694443C11.5529 0.694443 12.718 0.694443 13.8301 0.694443C15.0482 0.694443 16.2662 0.694442 17.4843 0.747258C18.1198 0.800075 18.7553 0.800074 19.3908 0.905707C20.1322 1.06416 20.8207 1.27542 21.5092 1.59232C22.9391 2.33175 23.8923 3.49371 24.4749 4.97257C24.7926 5.81763 24.9515 6.71551 25.0044 7.6662C25.0574 8.24719 25.0574 8.82817 25.0574 9.40915C25.0574 9.62041 25.0574 9.77886 25.0574 9.99013C25.0574 11.8915 25.0574 13.7929 25.0574 15.6943C25.0574 15.7471 25.0574 15.7999 25.0574 15.8527C25.0574 16.3809 25.0574 16.8563 25.0044 17.3844C25.0044 17.9126 24.9515 18.4408 24.8985 18.9689C24.7926 19.6027 24.6867 20.1837 24.4219 20.7647C23.8394 22.3492 22.7802 23.4583 21.2444 24.1977C20.2911 24.6203 19.3378 24.8315 18.2787 24.9372C17.6961 24.99 17.1136 24.99 16.4781 24.99C16.6369 25.0428 16.531 25.0428 16.4251 25.0428ZM12.9828 2.85991C11.9765 2.85991 11.0233 2.85991 10.0171 2.85991C9.11677 2.85991 8.1635 2.85991 7.2632 2.96555C6.73361 3.01836 6.20402 3.124 5.67443 3.33526C4.72117 3.70498 4.0327 4.33877 3.55607 5.23665C3.23832 5.81763 3.07944 6.45143 3.02648 7.08523C2.97352 7.56057 2.97352 8.03592 2.92056 8.51127C2.92056 9.46196 2.86761 10.4127 2.86761 11.4162C2.86761 12.8422 2.86761 14.2683 2.86761 15.7471C2.86761 16.645 2.86761 17.5957 2.97353 18.4936C3.02648 19.0217 3.1324 19.5499 3.34424 20.0781C3.71495 21.0288 4.35046 21.7154 5.30372 22.1907C5.88627 22.5076 6.52177 22.6661 7.15728 22.7189C7.63391 22.7717 8.11054 22.7717 8.58717 22.8245C9.54043 22.8245 10.4407 22.8773 11.394 22.8773C12.9298 22.8773 14.4656 22.8773 16.0014 22.8773C16.8488 22.8773 17.6961 22.8245 18.5435 22.7717C19.073 22.7189 19.6026 22.6132 20.0793 22.402C21.1385 21.9794 21.9328 21.24 22.3565 20.1837C22.6213 19.5499 22.7272 18.8633 22.7802 18.1239C22.8331 17.5957 22.8331 17.0675 22.8331 16.5922C22.8331 15.9056 22.8331 15.1661 22.8331 14.4795C22.8331 13.1591 22.8331 11.8387 22.8331 10.5183C22.8331 9.5676 22.8331 8.66972 22.7802 7.71902C22.7272 7.19086 22.6743 6.71551 22.5683 6.18735C22.3565 5.28947 21.8799 4.55004 21.1914 3.96906C20.7148 3.59934 20.1852 3.33526 19.5497 3.17681C18.9671 3.01836 18.3316 2.96555 17.7491 2.91273C16.8488 2.85991 15.9485 2.85991 15.1011 2.85991C14.4656 2.85991 13.7242 2.85991 12.9828 2.85991Z" fill="#060708"/>
<path d="M12.9828 19.1275C9.48749 19.1275 6.68066 16.3282 6.68066 12.8423C6.68066 9.40926 9.54044 6.60999 12.9828 6.60999C16.4251 6.60999 19.2319 9.46207 19.2319 12.948C19.2319 16.3282 16.4251 19.1275 12.9828 19.1275ZM12.9828 8.77546C10.7055 8.77546 8.90494 10.5712 8.90494 12.8423C8.90494 15.0606 10.7055 16.9092 12.9828 16.9092C15.2071 16.9092 17.0606 15.1134 17.0606 12.8423C17.0606 10.624 15.2071 8.77546 12.9828 8.77546Z" fill="#060708"/>
<path d="M19.4965 7.8246C18.7021 7.8246 18.0137 7.1908 18.0137 6.34574C18.0137 5.55349 18.6492 4.86688 19.4965 4.86688C20.2909 4.86688 20.9794 5.50068 20.9794 6.34574C20.9794 7.13799 20.2909 7.8246 19.4965 7.8246Z" fill="#060708"/>
</svg>
