<svg width="45" height="45" viewBox="0 0 45 45" fill="none" xmlns="http://www.w3.org/2000/svg">
<circle r="22.5" transform="matrix(1.19249e-08 -1 -1 -1.19249e-08 22.5 22.5)" fill="#EAEBEC"/>
<path fill-rule="evenodd" clip-rule="evenodd" d="M30.9393 14.0606C30.3535 13.4749 29.4038 13.4749 28.818 14.0606L21.9393 20.9393C21.3535 21.5251 21.3535 22.4749 21.9393 23.0606C22.5251 23.6464 23.4749 23.6464 24.0606 23.0606L30.9393 16.182C31.5251 15.5962 31.5251 14.6464 30.9393 14.0606Z" fill="#3A56A5"/>
<path fill-rule="evenodd" clip-rule="evenodd" d="M15.0607 14.0606C15.6465 13.4749 16.5962 13.4749 17.182 14.0606L24.0607 20.9393C24.6465 21.5251 24.6465 22.4749 24.0607 23.0606C23.4749 23.6464 22.5251 23.6464 21.9394 23.0606L15.0607 16.182C14.4749 15.5962 14.4749 14.6464 15.0607 14.0606Z" fill="#3A56A5"/>
<path fill-rule="evenodd" clip-rule="evenodd" d="M30.9393 30.0607C30.3535 30.6465 29.4038 30.6465 28.818 30.0607L21.9393 23.182C21.3535 22.5962 21.3535 21.6465 21.9393 21.0607C22.5251 20.4749 23.4749 20.4749 24.0606 21.0607L30.9393 27.9394C31.5251 28.5251 31.5251 29.4749 30.9393 30.0607Z" fill="#3A56A5"/>
<path fill-rule="evenodd" clip-rule="evenodd" d="M15.0607 30.0607C15.6465 30.6465 16.5962 30.6465 17.182 30.0607L24.0607 23.182C24.6465 22.5962 24.6465 21.6465 24.0607 21.0607C23.4749 20.4749 22.5251 20.4749 21.9394 21.0607L15.0607 27.9394C14.4749 28.5251 14.4749 29.4749 15.0607 30.0607Z" fill="#3A56A5"/>
</svg>
