<svg width="28" height="19" viewBox="0 0 28 19" fill="none" xmlns="http://www.w3.org/2000/svg">
<path d="M26.96 2.96961C26.6399 1.82826 25.7331 0.998187 24.6129 0.686909C22.5324 0.168113 14.2641 0.168113 14.2641 0.168113C14.2641 0.168113 5.94244 0.116233 3.86202 0.63503C2.7418 0.946307 1.83495 1.82826 1.51489 2.96961C0.981445 4.99292 0.981445 9.19517 0.981445 9.19517C0.981445 9.19517 0.981445 13.3974 1.51489 15.4207C1.83495 16.5621 2.7418 17.3922 3.86202 17.7034C5.94244 18.2222 14.2108 18.2222 14.2108 18.2222C14.2108 18.2222 22.5324 18.2222 24.5595 17.7034C25.6797 17.3922 26.5866 16.5102 26.9067 15.4207C27.4401 13.3974 27.4401 9.19517 27.4401 9.19517C27.4401 9.19517 27.4934 4.99292 26.96 2.96961ZM11.5436 13.0343V5.35608L18.4783 9.19517L11.5436 13.0343Z" fill="#060708"/>
</svg>
