<svg width="22" height="18" viewBox="0 0 22 18" fill="none" xmlns="http://www.w3.org/2000/svg">
<path d="M0.331055 15.5286C2.29341 16.7912 4.62702 17.5278 7.11974 17.5278C15.3404 17.5278 20.0076 10.6359 19.6894 4.48064C20.538 3.84933 21.2805 3.1128 21.9169 2.21844C21.1214 2.58671 20.2728 2.79714 19.3712 2.90236C20.2728 2.37627 20.9623 1.48191 21.3335 0.482327C20.485 1.00842 19.5303 1.37669 18.5226 1.53452C17.7271 0.692765 16.5603 0.166672 15.2874 0.166672C12.4234 0.166672 10.3019 2.79714 10.9914 5.58544C7.33188 5.42761 4.04362 3.63889 1.86912 1.00842C0.702312 3.00758 1.28571 5.58544 3.24807 6.84807C2.50556 6.84807 1.81608 6.63763 1.23268 6.32197C1.17964 8.37374 2.66467 10.2677 4.78613 10.6886C4.14969 10.8464 3.46021 10.899 2.77074 10.7412C3.35414 12.4773 4.94524 13.7399 6.90759 13.7925C5.05131 15.1604 2.7177 15.7917 0.331055 15.5286Z" fill="#060708"/>
</svg>
