<svg width="20" height="25" viewBox="0 0 20 25" fill="none" xmlns="http://www.w3.org/2000/svg">
<path d="M3.82465 14.8029C4.13412 14.9097 4.39203 14.8029 4.49519 14.4288C4.54677 14.1616 4.7015 13.5737 4.75308 13.3065C4.85624 12.9324 4.80466 12.8255 4.54677 12.5049C4.03098 11.8636 3.66992 11.0085 3.66992 9.7794C3.66992 6.2523 6.19729 3.09929 10.272 3.09929C13.8826 3.09929 15.8426 5.39725 15.8426 8.44338C15.8426 12.4515 14.1405 15.8717 11.5615 15.8717C10.1689 15.8717 9.08574 14.6425 9.44679 13.1996C9.85942 11.4361 10.6331 9.5122 10.6331 8.28306C10.6331 7.1608 10.0657 6.19886 8.82783 6.19886C7.38362 6.19886 6.24888 7.74865 6.24888 9.7794C6.24888 11.1154 6.6615 11.9705 6.6615 11.9705C6.6615 11.9705 5.16571 18.4368 4.90781 19.5591C4.39202 21.8036 4.80465 24.5826 4.85623 24.8498C4.85623 25.0101 5.06255 25.0635 5.16571 24.9032C5.32045 24.7429 7.02257 22.5518 7.58994 20.3607C7.74467 19.7194 8.51836 16.513 8.51836 16.513C8.98257 17.4215 10.3752 18.2231 11.8194 18.2231C16.1521 18.2231 19.0921 14.1616 19.0921 8.65715C19.0921 4.54219 15.7394 0.694443 10.5815 0.694443C4.18571 0.694443 0.987793 5.45069 0.987793 9.40532C1.09095 11.8636 1.9678 14.0012 3.82465 14.8029Z" fill="#060708"/>
</svg>
