<svg class="share-social" width="9" height="19" viewBox="0 0 9 19" fill="none" xmlns="http://www.w3.org/2000/svg">
<path fill-rule="evenodd" clip-rule="evenodd" d="M2.63389 19C2.63378 16.2422 2.63378 13.4843 2.6335 10.7265C2.6335 10.4136 2.633 10.4129 2.35424 10.4127C1.65944 10.4123 0.964523 10.4131 0.269665 10.4118C0.185686 10.4116 0.10165 10.4007 1.39687e-05 10.3935V10.1389C1.39687e-05 9.13742 -4.1906e-05 8.13585 6.98434e-05 7.13428C0.000125718 6.84432 0.000349194 6.84383 0.273576 6.84371C0.981677 6.84346 1.68983 6.83574 2.39771 6.84867C2.59534 6.85235 2.63993 6.78059 2.63758 6.5766C2.62808 5.73484 2.63032 4.89289 2.63456 4.05107C2.6397 3.01335 2.91567 2.08231 3.56175 1.30458C4.26297 0.460431 5.14311 0.0332696 6.17713 0.00949414C7.05028 -0.0105434 7.92416 0.00857498 8.7976 0.00103793C8.9579 -0.000310166 9.00037 0.0610893 8.99931 0.228682C8.99349 1.15035 8.99266 2.07207 8.99998 2.99374C9.00132 3.17089 8.94522 3.21244 8.79391 3.21029C8.21829 3.20208 7.6425 3.20245 7.06677 3.20839C6.48316 3.2144 6.05208 3.5676 5.92346 4.1447C5.89569 4.26934 5.89496 4.40323 5.89446 4.53289C5.89183 5.22238 5.89871 5.91193 5.88954 6.60123C5.88703 6.7888 5.93145 6.85032 6.1103 6.84818C6.96385 6.83795 7.81755 6.84364 8.67126 6.84364H8.93812C8.898 7.21008 8.86359 7.54496 8.82425 7.8791C8.73703 8.61835 8.64467 9.35692 8.56007 10.0965C8.52415 10.4103 8.53052 10.4122 8.23567 10.4123C7.5474 10.4129 6.85914 10.4123 6.17093 10.4127C5.89357 10.4129 5.89329 10.4135 5.89312 10.7266C5.89206 13.4843 5.891 16.2422 5.88988 19H2.63389Z" fill="#302625"/>
</svg>
