<svg width="19" height="19" viewBox="0 0 19 19" fill="none" xmlns="http://www.w3.org/2000/svg">
<path d="M4.31554 6.34985H0.396484V19H4.31554V6.34985Z" fill="#302625"/>
<path d="M2.33159 4.66319C3.62141 4.66319 4.66319 3.62141 4.66319 2.33159C4.61358 1.04178 3.62141 0 2.33159 0C1.04178 0 0 1.04178 0 2.33159C0 3.62141 1.04178 4.66319 2.33159 4.66319Z" fill="#302625"/>
<path d="M10.5671 12.3526C10.5671 10.5667 11.4105 9.52493 12.9483 9.52493C14.387 9.52493 15.0815 10.5667 15.0815 12.3526C15.0815 14.1881 15.0815 19.0001 15.0815 19.0001H19.0005C19.0005 19.0001 19.0005 14.3865 19.0005 10.9636C19.0005 7.5902 17.0658 5.95312 14.387 5.95312C11.7081 5.95312 10.5671 8.03668 10.5671 8.03668V6.34999H6.79688V19.0001H10.5671C10.5671 19.0001 10.5671 14.2873 10.5671 12.3526Z" fill="#302625"/>
</svg>
