<svg width="19" height="16" viewBox="0 0 19 16" fill="none" xmlns="http://www.w3.org/2000/svg">
<path d="M0 14.1576C1.72727 15.3212 3.78132 16 5.97543 16C13.2113 16 17.3194 9.64849 17.0393 3.97576C17.7862 3.39394 18.4398 2.71515 19 1.89091C18.2998 2.2303 17.5528 2.42424 16.7592 2.52121C17.5528 2.03636 18.1597 1.21212 18.4865 0.290909C17.7396 0.775757 16.8993 1.11515 16.0123 1.26061C15.312 0.484848 14.285 0 13.1646 0C10.6437 0 8.77641 2.42424 9.38329 4.99394C6.11548 4.75152 3.22113 3.10303 1.30712 0.678788C0.280096 2.52121 0.793613 4.89697 2.52089 6.06061C1.86732 6.06061 1.26044 5.86667 0.746928 5.57576C0.700245 7.46667 2.00737 9.21212 3.87469 9.6C3.31449 9.74545 2.70762 9.79394 2.10074 9.64849C2.61425 11.2485 4.01474 12.4121 5.74201 12.4606C4.10811 13.8182 2.05405 14.4 0 14.1576Z" fill="#302625"/>
</svg>
