<svg width="1440" height="146" viewBox="0 0 1440 146" fill="none" xmlns="http://www.w3.org/2000/svg">
<path d="M-1 131.585C23.1 127.485 42.3 128.085 55.8 129.485C84.5 132.485 103.4 136.685 103.6 136.785C105.4 137.185 116 139.285 126.5 140.185C138.4 141.285 146.8 142.085 147.6 139.485C148.3 137.385 143.4 134.885 136.9 128.785C131 123.185 123.6 116.185 121.1 107.685C116.8 92.5854 128.4 73.6854 141 67.4854C146.7 64.6854 153.5 63.2854 153.5 63.2854C161.6 61.6854 168 62.3854 168.1 61.5854C168.2 60.9854 164.4 59.7854 160.9 59.3854C153.5 58.5854 144.6 57.6854 135.1 62.8854C122.2 69.7854 118 82.2854 116.8 85.8854C115.7 89.3854 112.1 100.685 117.4 112.685C121.3 121.285 127.9 125.785 131.3 128.085C140.7 134.485 150 135.485 152.7 135.685C157.2 135.985 170.9 136.985 181.7 127.185C192.5 117.285 192.7 103.585 192.7 98.4854C192.7 96.0854 192.7 79.3854 181.4 69.4854C179.7 67.9854 175.2 64.0854 171.6 65.3854C168.6 66.4854 167.5 70.8854 165.6 78.2854C163.4 87.0854 163.3 88.6854 161.2 92.7854C158.9 97.0854 154.8 102.485 152.8 101.685C151.4 101.185 150.6 97.1854 152.1 94.3854C154.5 89.4854 161.6 91.6854 167 86.6854C169.7 84.1854 170.7 81.4854 172.9 73.2854C178.3 53.7854 177 54.1854 179.1 48.7854C184.9 34.0854 196.4 29.0854 193.8 22.3854C192.8 19.7854 189.1 15.1854 188.9 14.8854C185.9 11.0854 184.4 10.4854 184.4 8.78544C184.4 5.38544 190.4 2.48544 194.6 1.48544C201.7 -0.114561 208.5 2.68544 208.4 3.48544C208.3 3.88544 205.8 3.98544 200.7 4.08544C189 4.28544 185.7 2.98544 183.5 5.18544C181.5 7.18544 183.1 9.78544 182.9 15.3854C182.6 22.8854 179.4 35.4854 171 38.6854C169.7 39.1854 164.5 40.9854 156.4 36.4854C156.3 27.5854 156.2 18.7854 156.1 9.88544C157.5 8.88544 158.9 7.88544 160.3 6.88544C182.1 11.1854 188.2 17.6854 189.5 22.9854C190.5 26.6854 188.8 28.5854 189.5 34.9854C190.2 42.1854 193.1 46.9854 198 55.1854C203.8 64.8854 208.2 71.9854 216.8 78.7854C223.4 83.9854 229.7 86.7854 234 88.2854C233.6 92.6854 232.7 96.4854 231.9 99.3854C231.3 101.385 230 105.785 227.3 110.985C226.8 111.885 226.6 112.385 226.2 112.985C224.6 115.985 222.4 120.685 220.4 127.485C216 127.485 211.7 127.585 207.3 127.585C206.7 126.085 206.1 124.585 205.6 122.985C209.3 123.685 217.6 124.685 226.1 120.385C229 118.885 234.8 115.985 237.1 109.685C237.7 108.085 239.6 102.985 236.6 99.0854C234.1 95.7854 229 93.9854 225.2 96.2854C222.4 97.8854 220.5 101.585 221.4 104.785C222.5 108.685 227.6 111.285 230.7 110.085C235.2 108.285 232.4 99.2854 236 82.5854C238 73.2854 239.6 72.9854 244.1 57.1854C246.4 49.1854 248 42.5854 248.9 38.0854C246.4 37.7854 242.3 37.0854 238 34.5854C235.3 33.0854 233.2 31.8854 233.4 30.9854C233.6 29.5854 238.7 28.3854 261.4 29.4854C262.2 30.4854 263 32.0854 262.6 33.4854C261.5 36.6854 254.8 34.8854 249 38.0854C242.4 41.7854 237.8 51.6854 240.9 58.7854C242.4 62.1854 245.9 65.7854 250 65.6854C257.3 65.5854 262.6 53.6854 260 50.1854C258 47.4854 250.3 48.7854 250 50.4854C249.8 51.2854 251.4 52.2854 252.4 52.8854C258.5 56.5854 267 54.4854 271.1 53.0854C280.7 52.9854 290.3 52.8854 300 52.7854C305.9 51.2854 307.1 50.3854 307 49.8854C306.8 47.8854 290 47.9854 288.3 47.9854C281.3 47.9854 275.4 48.4854 271.4 48.9854C268.5 50.0854 264.4 51.8854 260.3 54.9854C242.1 68.8854 231.1 101.585 246.7 123.185C254.4 133.785 268.1 141.285 283.1 140.585C299.8 139.785 314.8 128.985 320.8 113.485C321.4 111.985 328.3 93.1854 317 75.7854C315.4 73.2854 308 62.4854 293.9 58.6854C276.9 54.0854 254.4 60.6854 252.4 71.9854C250.8 81.2854 263 94.4854 283.1 100.785C287.1 100.285 289.6 98.3854 289.6 96.6854C289.6 94.8854 286.4 92.9854 283.9 93.3854C280.3 94.0854 280.5 99.1854 277.4 102.385C270 109.785 252.9 97.1854 246.4 102.685C240.4 107.785 243.8 128.785 256.4 138.585C271.3 149.985 294.9 142.785 312.4 137.385C323.2 134.085 330.9 130.185 332.2 129.485C332.3 129.385 332.3 129.385 332.4 129.385C340.7 125.085 407.4 96.3854 430.5 88.9854C675.8 10.0854 908.9 31.5854 908.9 31.5854C1065.8 45.9854 1093.4 81.0854 1320.4 100.185C1371.3 104.485 1413.3 106.385 1441.3 107.285" stroke="#3A56A5" stroke-miterlimit="10"/>
</svg>
